<svg width="360" height="480" viewBox="0 0 360 480" xmlns="http://www.w3.org/2000/svg">
  <defs>
    <linearGradient id="bg1" x1="0%" y1="0%" x2="100%" y2="100%">
      <stop offset="0%" stop-color="#f6efe7" />
      <stop offset="100%" stop-color="#e3d4c4" />
    </linearGradient>
    <linearGradient id="accent1" x1="0%" y1="0%" x2="100%" y2="0%">
      <stop offset="0%" stop-color="#c19b79" />
      <stop offset="100%" stop-color="#9e8e7a" />
    </linearGradient>
    <filter id="shadow" x="-10%" y="-10%" width="120%" height="120%">
      <feOffset dy="6" input="SourceAlpha" />
      <feGaussianBlur stdDeviation="8" />
      <feColorMatrix type="matrix" values="0 0 0 0 0  0 0 0 0 0  0 0 0 0 0  0 0 0 0.2 0" />
      <feBlend in="SourceGraphic" />
    </filter>
  </defs>
  <rect width="360" height="480" rx="36" fill="url(#bg1)" />
  <g filter="url(#shadow)">
    <rect x="28" y="42" width="304" height="396" rx="32" fill="#fff" />
    <rect x="28" y="112" width="304" height="50" rx="25" fill="url(#accent1)" opacity="0.15" />
    <circle cx="80" cy="110" r="34" fill="#f6efe7" stroke="#e0cdbb" stroke-width="4" />
    <path d="M80 85 L86 102 L104 102 L90 113 L96 130 L80 120 L64 130 L70 113 L56 102 L74 102 Z" fill="#c29972" />
    <text x="120" y="104" font-family="'Poppins', 'Segoe UI', sans-serif" font-size="20" font-weight="600" fill="#3a322b">Camila Duarte</text>
    <text x="120" y="130" font-family="'Poppins', 'Segoe UI', sans-serif" font-size="14" fill="#9e8e7a">Paciente de Reabilitação</text>
    <text x="56" y="184" font-family="'Poppins', 'Segoe UI', sans-serif" font-size="48" fill="#e3d4c4">“</text>
    <text x="56" y="215" font-family="'Poppins', 'Segoe UI', sans-serif" font-size="16" fill="#4c4338">
      Atendimento acolhedor e equipe extremamente preparada. Senti confiança em cada etapa
      do meu tratamento.
    </text>
    <text x="56" y="275" font-family="'Poppins', 'Segoe UI', sans-serif" font-size="16" fill="#4c4338">
      Recomendo a Clínica Locateli para qualquer pessoa que busca profissionais humanos
      e resultados consistentes.
    </text>
    <rect x="56" y="320" width="248" height="56" rx="28" fill="url(#accent1)" opacity="0.12" />
    <text x="72" y="352" font-family="'Poppins', 'Segoe UI', sans-serif" font-size="14" fill="#8a7761">
      Sessões semanais com foco em mobilidade e bem-estar.
    </text>
  </g>
</svg>
